<?xml version="1.0" standalone="no"?>
<!DOCTYPE svg PUBLIC "-//W3C//DTD SVG 20010904//EN"
 "http://www.w3.org/TR/2001/REC-SVG-20010904/DTD/svg10.dtd">
<svg version="1.0" xmlns="http://www.w3.org/2000/svg"
 width="445.000000pt" height="113.000000pt" viewBox="0 0 445.000000 113.000000"
 preserveAspectRatio="xMidYMid meet">

<g transform="translate(0.000000,113.000000) scale(0.100000,-0.100000)"
fill="#000000" stroke="none">
<path d="M2050 645 l0 -465 90 0 90 0 0 465 0 465 -90 0 -90 0 0 -465z"/>
<path d="M3780 645 l0 -465 95 0 94 0 3 136 3 136 109 -136 110 -136 119 0
c92 0 117 3 111 12 -4 7 -65 79 -136 160 -70 80 -128 150 -128 156 0 5 58 76
129 158 l129 149 -106 3 c-58 1 -111 1 -118 -2 -7 -3 -60 -62 -118 -131 l-106
-126 0 275 0 276 -95 0 -95 0 0 -465z"/>
<path d="M1597 814 c-104 -32 -172 -142 -146 -237 21 -81 80 -121 222 -152 94
-21 123 -41 113 -78 -5 -20 -16 -29 -44 -36 -50 -14 -151 3 -214 34 l-47 24
-26 -56 c-14 -30 -25 -59 -25 -64 0 -5 21 -19 48 -32 111 -56 272 -67 364 -25
132 61 166 214 67 303 -29 26 -66 43 -152 70 -123 38 -156 60 -138 93 6 11 18
22 27 26 46 18 164 -5 222 -42 12 -8 24 -13 26 -11 7 11 46 113 46 124 0 14
-80 52 -140 65 -64 14 -147 11 -203 -6z"/>
<path d="M2527 816 c-89 -32 -159 -103 -193 -198 -23 -64 -21 -181 5 -250 47
-122 155 -201 276 -201 65 1 138 26 164 56 20 25 28 21 23 -13 l-4 -30 96 0
96 0 0 320 0 321 -92 -3 -93 -3 0 -32 c0 -18 -1 -33 -2 -33 -1 0 -14 11 -28
24 -55 51 -169 70 -248 42z m175 -166 c21 -6 51 -22 68 -36 29 -25 30 -28 30
-118 0 -76 -3 -96 -17 -108 -76 -66 -196 -63 -251 7 -53 67 -48 155 11 213 49
48 95 59 159 42z"/>
<path d="M3313 816 c-96 -31 -178 -110 -214 -205 -28 -75 -23 -185 11 -256 83
-172 294 -239 464 -147 43 23 126 104 126 122 0 4 -34 25 -75 47 -70 39 -76
40 -88 23 -37 -53 -136 -76 -196 -45 -130 67 -111 254 30 296 50 15 106 0 154
-42 31 -28 36 -29 57 -16 13 8 44 26 71 41 54 31 53 36 -10 100 -78 79 -226
116 -330 82z"/>
<path d="M51 504 c-52 -43 -54 -118 -5 -167 35 -35 82 -43 126 -23 50 24 68
62 68 145 l0 71 -79 0 c-71 0 -83 -3 -110 -26z"/>
<path d="M362 517 c-49 -28 -57 -53 -60 -205 -3 -78 -1 -163 3 -189 15 -100
113 -147 184 -87 46 38 53 79 49 259 -2 133 -6 164 -21 186 -31 46 -105 63
-155 36z"/>
</g>
</svg>
